<svg width="100" height="100" viewBox="0 0 100 100" fill="none" xmlns="http://www.w3.org/2000/svg">
<g clip-path="url(#clip0_1_43)">
<circle cx="73.5772" cy="22.7317" r="20.7317" fill="url(#paint0_linear_1_43)"/>
<g filter="url(#filter0_bd_1_43)">
<path fill-rule="evenodd" clip-rule="evenodd" d="M18.9004 68.2384C8.44622 68.1462 0 59.6429 0 49.167C0 40.776 5.41876 33.6507 12.9478 31.0994C16.0242 17.6974 28.1692 7.69104 42.6829 7.69104C50.8601 7.69104 58.2855 10.8674 63.7606 16.0379C65.6725 14.8689 67.9202 14.1951 70.3252 14.1951C77.2849 14.1951 82.9269 19.8371 82.9269 26.7967C82.9269 27.9603 82.7692 29.087 82.474 30.1566C92.2842 30.9436 100 39.1543 100 49.167C100 59.6429 91.5538 68.1461 81.0997 68.2384V68.2393H18.9004V68.2384Z" fill="url(#paint1_linear_1_43)" shape-rendering="geometricPrecision"/>
</g>
<g filter="url(#filter1_b_1_43)">
<path d="M54.1875 94.3285C54.1875 96.531 52.4377 98.3165 50.2792 98.3165C48.1208 98.3165 46.371 96.531 46.371 94.3285C46.371 92.126 50.2792 84.3585 50.2792 84.3585C50.2792 84.3585 54.1875 92.126 54.1875 94.3285Z" fill="url(#paint2_linear_1_43)" fill-opacity="0.55"/>
</g>
<g filter="url(#filter2_b_1_43)">
<path d="M43.021 83.9598C43.021 85.7218 41.5212 87.1502 39.6711 87.1502C37.821 87.1502 36.3212 85.7218 36.3212 83.9598C36.3212 82.1978 39.6711 75.9838 39.6711 75.9838C39.6711 75.9838 43.021 82.1978 43.021 83.9598Z" fill="url(#paint3_linear_1_43)" fill-opacity="0.55"/>
<path d="M63.6789 83.9597C63.6789 85.7217 62.179 87.1501 60.3289 87.1501C58.4788 87.1501 56.979 85.7217 56.979 83.9597C56.979 82.1977 60.3289 75.9837 60.3289 75.9837C60.3289 75.9837 63.6789 82.1977 63.6789 83.9597Z" fill="url(#paint4_linear_1_43)" fill-opacity="0.55"/>
</g>
</g>
<defs>
<filter id="filter0_bd_1_43" x="-4" y="3.69104" width="108" height="68.5482" filterUnits="userSpaceOnUse" color-interpolation-filters="sRGB">
<feFlood flood-opacity="0" result="BackgroundImageFix"/>
<feGaussianBlur in="BackgroundImageFix" stdDeviation="2"/>
<feComposite in2="SourceAlpha" operator="in" result="effect1_backgroundBlur_1_43"/>
<feColorMatrix in="SourceAlpha" type="matrix" values="0 0 0 0 0 0 0 0 0 0 0 0 0 0 0 0 0 0 127 0" result="hardAlpha"/>
<feOffset/>
<feGaussianBlur stdDeviation="2"/>
<feComposite in2="hardAlpha" operator="out"/>
<feColorMatrix type="matrix" values="0 0 0 0 0 0 0 0 0 0 0 0 0 0 0 0 0 0 0.02 0"/>
<feBlend mode="normal" in2="effect1_backgroundBlur_1_43" result="effect2_dropShadow_1_43"/>
<feBlend mode="normal" in="SourceGraphic" in2="effect2_dropShadow_1_43" result="shape"/>
</filter>
<filter id="filter1_b_1_43" x="42.371" y="80.3585" width="15.8165" height="21.958" filterUnits="userSpaceOnUse" color-interpolation-filters="sRGB">
<feFlood flood-opacity="0" result="BackgroundImageFix"/>
<feGaussianBlur in="BackgroundImageFix" stdDeviation="2"/>
<feComposite in2="SourceAlpha" operator="in" result="effect1_backgroundBlur_1_43"/>
<feBlend mode="normal" in="SourceGraphic" in2="effect1_backgroundBlur_1_43" result="shape"/>
</filter>
<filter id="filter2_b_1_43" x="32.3212" y="71.9837" width="35.3577" height="19.1665" filterUnits="userSpaceOnUse" color-interpolation-filters="sRGB">
<feFlood flood-opacity="0" result="BackgroundImageFix"/>
<feGaussianBlur in="BackgroundImageFix" stdDeviation="2"/>
<feComposite in2="SourceAlpha" operator="in" result="effect1_backgroundBlur_1_43"/>
<feBlend mode="normal" in="SourceGraphic" in2="effect1_backgroundBlur_1_43" result="shape"/>
</filter>
<linearGradient id="paint0_linear_1_43" x1="95.9349" y1="-2.47154" x2="54.065" y2="39.3984" gradientUnits="userSpaceOnUse">
<stop stop-color="#F8E3AD"/>
<stop offset="0.228044" stop-color="#FBF3DF"/>
<stop offset="1" stop-color="#C28C00"/>
</linearGradient>
<linearGradient id="paint1_linear_1_43" x1="114.228" y1="-6.13008" x2="22.7642" y2="47.5284" gradientUnits="userSpaceOnUse">
<stop stop-color="#A5B4FC" stop-opacity="0.56"/>
<stop offset="0.47" stop-color="#FECACA" stop-opacity="0.61"/>
<stop offset="1" stop-color="#A5B4FC" stop-opacity="0.67"/>
</linearGradient>
<linearGradient id="paint2_linear_1_43" x1="55.4902" y1="87.0428" x2="46.2768" y2="91.1878" gradientUnits="userSpaceOnUse">
<stop stop-color="#A5B4FC"/>
<stop offset="0.47" stop-color="#FECACA"/>
<stop offset="1" stop-color="#A5B4FC"/>
</linearGradient>
<linearGradient id="paint3_linear_1_43" x1="44.1377" y1="78.1312" x2="36.4324" y2="81.8454" gradientUnits="userSpaceOnUse">
<stop stop-color="#A5B4FC"/>
<stop offset="0.47" stop-color="#FECACA"/>
<stop offset="1" stop-color="#A5B4FC"/>
</linearGradient>
<linearGradient id="paint4_linear_1_43" x1="64.7955" y1="78.1311" x2="57.0902" y2="81.8453" gradientUnits="userSpaceOnUse">
<stop stop-color="#A5B4FC"/>
<stop offset="0.47" stop-color="#FECACA"/>
<stop offset="1" stop-color="#A5B4FC"/>
</linearGradient>
<clipPath id="clip0_1_43">
<rect width="100" height="100" fill="white"/>
</clipPath>
</defs>
</svg>
